<?xml version="1.0" encoding="UTF-8"?>
<svg width="100px" height="112px" viewBox="0 0 100 112" version="1.1" xmlns="http://www.w3.org/2000/svg" xmlns:xlink="http://www.w3.org/1999/xlink">
    <!-- Generator: Sketch 48.2 (47327) - http://www.bohemiancoding.com/sketch -->
    <title>Shape</title>
    <desc>Created with Sketch.</desc>
    <defs></defs>
    <g id="Artboard-2" stroke="none" stroke-width="1" fill="none" fill-rule="evenodd" transform="translate(-458.000000, -343.000000)">
        <path d="M517.599998,355.834999 L540.703929,369.131618 C541.354493,368.444723 542.114398,367.838231 542.976459,367.339122 C547.768147,364.593463 553.879702,366.223698 556.662899,371 C559.417402,375.776302 557.781916,381.868233 552.990227,384.642492 C552.134756,385.132682 551.2363,385.483394 550.321802,385.701628 L550.321802,412.305263 C551.226399,412.523959 552.115011,412.872446 552.961534,413.357508 C557.781916,416.131767 559.417402,422.223698 556.634206,427 C553.879702,431.776302 547.739455,433.406537 542.947766,430.660879 C541.993791,430.114247 541.164918,429.433847 540.470881,428.656917 L517.507876,441.872431 C517.83614,442.861151 518.013769,443.918771 518.013769,445.018386 C518.013769,450.509704 513.5377,455 508,455 C502.4623,455 497.986231,450.538305 497.986231,445.018386 C497.986231,444.037207 498.127657,443.089463 498.391332,442.194269 L475.29355,428.90119 C474.649932,429.574597 473.900545,430.16973 473.052234,430.660879 C468.231853,433.406537 462.120298,431.776302 459.365794,427 C456.61129,422.223698 458.246777,416.131767 463.038466,413.357508 C463.88568,412.87205 464.774155,412.52339 465.678198,412.304728 L465.678198,385.701628 C464.7637,385.483394 463.865244,385.132682 463.009773,384.642492 C458.218084,381.896834 456.582597,375.776302 459.337101,371 C462.091605,366.223698 468.231853,364.593463 473.023541,367.339122 C473.880913,367.835517 474.637237,368.438129 475.285446,369.120416 L498.395609,355.820211 C498.129187,354.92076 497.986231,353.968085 497.986231,352.981614 C497.986231,347.461696 502.4623,343 508,343 C513.5377,343 518.013769,347.461696 518.013769,352.981614 C518.013769,353.973493 517.869241,354.931204 517.599998,355.834999 Z M515.192827,359.931734 L538.351779,373.260018 C537.635898,375.7662 537.898639,378.54509 539.303787,380.981614 C540.713516,383.42608 543.010072,385.046499 545.558806,385.678007 L545.558806,412.314928 C545.428919,412.346709 545.29968,412.381056 545.171172,412.417947 L514.923941,360.197965 C515.015241,360.110913 515.104887,360.022152 515.192827,359.931734 Z M501.082395,360.204001 L470.835675,412.423101 C470.704906,412.385248 470.573383,412.350039 470.441194,412.317497 L470.441194,385.678007 C472.989928,385.046499 475.286484,383.42608 476.696213,380.981614 C478.10414,378.540272 478.365137,375.755208 477.643962,373.245153 L500.796386,359.920626 C500.88981,360.016979 500.985167,360.111458 501.082395,360.204001 Z M510.797949,362.569678 L541.037819,414.776953 C540.361032,415.420139 539.7646,416.169584 539.275094,417.018386 C538.78847,417.862191 538.43886,418.74795 538.21946,419.649643 L477.781077,419.649643 C477.561711,418.748502 477.211927,417.86288 476.724906,417.018386 C476.233465,416.175015 475.638252,415.429733 474.964855,414.789311 L505.210477,362.572106 C506.09568,362.826787 507.031607,362.963228 508,362.963228 C508.971466,362.963228 509.91026,362.82592 510.797949,362.569678 Z M515.405502,438.2938 L538.414104,425.052044 C538.345077,424.835953 538.283392,424.617583 538.229156,424.397344 L477.768267,424.397344 C477.736207,424.526742 477.701566,424.655499 477.664367,424.783533 L500.785852,438.090254 C502.606366,436.206987 505.163961,435.036772 508,435.036772 C510.936867,435.036772 513.575138,436.291674 515.405502,438.2938 Z" id="Shape" fill="#E535AB"></path>
    </g>
</svg>