<?xml version="1.0" encoding="UTF-8" standalone="no"?>
<svg width="18px" height="24px" viewBox="0 0 18 24" version="1.1" xmlns="http://www.w3.org/2000/svg" xmlns:xlink="http://www.w3.org/1999/xlink">
    <!-- Generator: Sketch 42 (36781) - http://www.bohemiancoding.com/sketch -->
    <title>Group</title>
    <desc>Created with Sketch.</desc>
    <defs>
        <path d="M7,0 C3.14,0 0,3.14 0,7 C0,12.25 7,20 7,20 C7,20 14,12.25 14,7 C14,3.14 10.86,0 7,0 Z" id="path-1"></path>
        <filter x="-50%" y="-50%" width="200%" height="200%" filterUnits="objectBoundingBox" id="filter-2">
            <feMorphology radius="1" operator="dilate" in="SourceAlpha" result="shadowSpreadOuter1"></feMorphology>
            <feOffset dx="0" dy="0" in="shadowSpreadOuter1" result="shadowOffsetOuter1"></feOffset>
            <feGaussianBlur stdDeviation="0.5" in="shadowOffsetOuter1" result="shadowBlurOuter1"></feGaussianBlur>
            <feComposite in="shadowBlurOuter1" in2="SourceAlpha" operator="out" result="shadowBlurOuter1"></feComposite>
            <feColorMatrix values="0 0 0 0 0   0 0 0 0 0.349019608   0 0 0 0 0.129411765  0 0 0 1 0" type="matrix" in="shadowBlurOuter1"></feColorMatrix>
        </filter>
        <mask id="mask-3" maskContentUnits="userSpaceOnUse" maskUnits="objectBoundingBox" x="-1" y="-1" width="16" height="22">
            <rect x="-1" y="-1" width="16" height="22" fill="white"></rect>
            <use xlink:href="#path-1" fill="black"></use>
        </mask>
    </defs>
    <g id="Page-1" stroke="none" stroke-width="1" fill="none" fill-rule="evenodd">
        <g id="Desktop-HD" transform="translate(-499.000000, -595.000000)" fill-rule="nonzero">
            <g id="Pins" transform="translate(114.000000, 570.000000)">
                <g id="Group" transform="translate(387.000000, 27.000000)">
                    <g id="Shape">
                        <use fill="black" fill-opacity="1" filter="url(#filter-2)" xlink:href="#path-1"></use>
                        <use fill="#FFFFFF" fill-rule="evenodd" xlink:href="#path-1"></use>
                        <use stroke="#05612C" mask="url(#mask-3)" stroke-width="2" xlink:href="#path-1"></use>
                    </g>
                    <path d="M7,0 C3.14,0 0,3.14 0,7 C0,12.25 7,20 7,20 C7,20 14,12.25 14,7 C14,3.14 10.86,0 7,0 Z M7,4 C9.1,4 10,4.9 10,7 C10,9.1 9.1,10 7,10 C4.9,10 4,9.11 4,7 C4,4.89 4.9,4 7,4 Z" id="Shape" fill="#27AE60"></path>
                </g>
            </g>
        </g>
    </g>
</svg>