<?xml version="1.0" encoding="UTF-8" standalone="no"?>
<svg width="22px" height="14px" viewBox="0 0 22 14" version="1.1" xmlns="http://www.w3.org/2000/svg" xmlns:xlink="http://www.w3.org/1999/xlink">
    <!-- Generator: Sketch 42 (36781) - http://www.bohemiancoding.com/sketch -->
    <title>Shape</title>
    <desc>Created with Sketch.</desc>
    <defs></defs>
    <g id="Page-1" stroke="none" stroke-width="1" fill="none" fill-rule="evenodd" fill-opacity="0.200000003">
        <g id="Desktop-HD" transform="translate(-1191.000000, -35.000000)" fill-rule="nonzero" fill="#000000">
            <g id="chat" transform="translate(1132.000000, 8.000000)">
                <g id="head" transform="translate(20.000000, 24.000000)">
                    <path d="M54,9 C55.66,9 56.99,7.66 56.99,6 C56.99,4.34 55.66,3 54,3 C52.34,3 51,4.34 51,6 C51,7.66 52.34,9 54,9 Z M46,9 C47.66,9 48.99,7.66 48.99,6 C48.99,4.34 47.66,3 46,3 C44.34,3 43,4.34 43,6 C43,7.66 44.34,9 46,9 Z M46,11 C43.67,11 39,12.17 39,14.5 L39,17 L53,17 L53,14.5 C53,12.17 48.33,11 46,11 Z M54,11 C53.71,11 53.38,11.02 53.03,11.05 C54.19,11.89 55,13.02 55,14.5 L55,17 L61,17 L61,14.5 C61,12.17 56.33,11 54,11 Z" id="Shape"></path>
                </g>
            </g>
        </g>
    </g>
</svg>